<svg version="1.1" xmlns="http://www.w3.org/2000/svg" xmlns:xlink="http://www.w3.org/1999/xlink" x="0px" y="0px"
	 viewBox="0 0 100 100" style="enable-background:new 0 0 100 100;" xml:space="preserve">
<g id="Vrstva_246">
	<g>
		<g>
			<path d="M35.3,83c-0.384,0-0.768-0.146-1.061-0.439l-16.8-16.8c-0.586-0.585-0.586-1.536,0-2.121l51.2-51.2
				c0.586-0.586,1.535-0.586,2.121,0l16.8,16.8c0.586,0.585,0.586,1.536,0,2.121l-51.2,51.2C36.068,82.853,35.684,83,35.3,83z
				 M20.621,64.7L35.3,79.379L84.379,30.3L69.7,15.621L20.621,64.7z"/>
		</g>
		<g>
			<path d="M26.901,74.599c-0.384,0-0.768-0.146-1.061-0.439c-0.586-0.586-0.586-1.536,0-2.121l40-40
				c0.586-0.586,1.535-0.586,2.121,0c0.586,0.585,0.586,1.536,0,2.121l-40,40C27.668,74.453,27.284,74.599,26.901,74.599z"/>
		</g>
		<g>
			<path d="M13.501,88c-0.11,0-0.224-0.013-0.336-0.039c-0.808-0.185-1.313-0.99-1.127-1.797l5-21.8
				c0.186-0.807,0.99-1.312,1.797-1.126c0.808,0.185,1.312,0.99,1.127,1.797l-5,21.8C14.803,87.53,14.185,88,13.501,88z"/>
		</g>
		<g>
			<path d="M13.499,88c-0.684,0-1.302-0.471-1.461-1.165c-0.186-0.808,0.319-1.612,1.127-1.797l21.8-5
				c0.809-0.186,1.612,0.32,1.797,1.127c0.186,0.808-0.319,1.612-1.127,1.797l-21.8,5C13.723,87.988,13.61,88,13.499,88z"/>
		</g>
		<g>
			<path d="M75.3,43c-0.384,0-0.768-0.146-1.061-0.439l-16.8-16.8c-0.586-0.585-0.586-1.536,0-2.121
				c0.586-0.586,1.535-0.586,2.121,0l16.8,16.8c0.586,0.585,0.586,1.536,0,2.121C76.068,42.853,75.684,43,75.3,43z"/>
		</g>
	</g>
</g>
<script  type="text/javascript">
    <![CDATA[
         var c=window.location.search.split('color=')[1]; c=parseInt(c,16); if(!isNaN(c)){c=c.toString(16);var p=document.getElementsByTagName('path');for(var i=0,l=p.length;i<l;i++){var s=p[i].style;s.fill='#'+c;} var p2=document.getElementsByTagName('polygon');for(var i=0,l=p2.length;i<l;i++){var s=p2[i].style;s.fill='#'+c;} var p3=document.getElementsByTagName('circle');for(var i=0,l=p3.length;i<l;i++){var s=p3[i].style;s.fill='#'+c;} }
        ]]>
</script>
</svg>
