<svg version="1.1" xmlns="http://www.w3.org/2000/svg" xmlns:xlink="http://www.w3.org/1999/xlink" x="0px" y="0px"
	 viewBox="0 0 100 100" style="enable-background:new 0 0 100 100;" xml:space="preserve">
<g id="Vrstva_140">
	<g>
		<g>
			<path d="M79,54.572c-0.828,0-1.5-0.671-1.5-1.5V20.576c-6.319,3.551-15.508,1.097-24.433-1.286
				c-9.298-2.484-18.083-4.829-22.506-0.408c-0.586,0.586-1.535,0.586-2.121,0c-0.586-0.585-0.586-1.536,0-2.121
				c5.646-5.646,15.689-2.965,25.402-0.37c9.396,2.509,19.112,5.103,24.098,0.12c0.43-0.429,1.076-0.558,1.635-0.325
				c0.561,0.232,0.926,0.779,0.926,1.386v35.5C80.5,53.901,79.828,54.572,79,54.572z"/>
		</g>
		<g>
			<path d="M69.658,58.361c-5.096,0-10.896-1.55-16.591-3.07c-9.298-2.484-18.083-4.829-22.506-0.408
				c-0.586,0.586-1.535,0.586-2.121,0c-0.586-0.585-0.586-1.536,0-2.121c5.646-5.646,15.689-2.965,25.402-0.37
				c9.396,2.508,19.112,5.104,24.098,0.12c0.586-0.586,1.535-0.586,2.121,0c0.586,0.585,0.586,1.536,0,2.121
				C77.311,57.382,73.707,58.36,69.658,58.361z"/>
		</g>
		<g>
			<path d="M21,86.572c-0.829,0-1.5-0.671-1.5-1.5v-70c0-0.829,0.671-1.5,1.5-1.5c0.829,0,1.5,0.671,1.5,1.5v70
				C22.5,85.901,21.829,86.572,21,86.572z"/>
		</g>
	</g>
</g>
<script  type="text/javascript">
    <![CDATA[
         var c=window.location.search.split('color=')[1]; c=parseInt(c,16); if(!isNaN(c)){c=c.toString(16);var p=document.getElementsByTagName('path');for(var i=0,l=p.length;i<l;i++){var s=p[i].style;s.fill='#'+c;} var p2=document.getElementsByTagName('polygon');for(var i=0,l=p2.length;i<l;i++){var s=p2[i].style;s.fill='#'+c;} var p3=document.getElementsByTagName('circle');for(var i=0,l=p3.length;i<l;i++){var s=p3[i].style;s.fill='#'+c;} }
        ]]>
</script>
</svg>
