<svg version="1.1" xmlns="http://www.w3.org/2000/svg" xmlns:xlink="http://www.w3.org/1999/xlink" x="0px" y="0px"
	 viewBox="0 0 100 100" style="enable-background:new 0 0 100 100;" xml:space="preserve">
<g id="Vrstva_156">
	<g>
		<g>
			<path d="M49.928,70.75c-0.456,0-0.887-0.216-1.171-0.571l-4.83-6.042l-7.056,3.151c-0.42,0.189-0.898,0.172-1.305-0.039
				c-0.406-0.212-0.693-0.597-0.78-1.046l-1.471-7.593l-7.717-0.486c-0.456-0.029-0.875-0.265-1.137-0.641s-0.337-0.85-0.205-1.288
				l2.227-7.404l-6.607-4.018c-0.392-0.237-0.652-0.641-0.709-1.095c-0.057-0.454,0.097-0.91,0.417-1.236l5.413-5.521l-3.983-6.627
				c-0.236-0.392-0.28-0.87-0.119-1.299c0.16-0.429,0.508-0.761,0.944-0.901l7.358-2.373l-0.445-7.72
				c-0.026-0.457,0.157-0.901,0.498-1.206c0.342-0.305,0.803-0.437,1.255-0.359l7.617,1.318l3.192-7.04
				c0.188-0.417,0.558-0.725,1.002-0.836c0.442-0.112,0.914-0.015,1.277,0.265l6.133,4.706l6.098-4.753
				c0.36-0.282,0.83-0.383,1.275-0.275c0.444,0.108,0.816,0.413,1.008,0.829l3.245,7.02l7.608-1.374
				c0.45-0.08,0.913,0.047,1.257,0.351c0.344,0.302,0.531,0.744,0.508,1.201l-0.39,7.722l7.375,2.319
				c0.437,0.137,0.786,0.466,0.95,0.893c0.164,0.428,0.124,0.906-0.109,1.3l-3.932,6.656l5.452,5.481
				c0.323,0.324,0.479,0.778,0.426,1.233c-0.053,0.454-0.312,0.859-0.7,1.1l-6.575,4.065l2.28,7.388
				c0.135,0.438,0.062,0.912-0.196,1.29c-0.259,0.378-0.675,0.616-1.132,0.648l-7.713,0.545l-1.413,7.6
				c-0.084,0.45-0.368,0.837-0.772,1.051c-0.403,0.215-0.884,0.233-1.304,0.049l-7.082-3.102l-4.783,6.082
				c-0.283,0.36-0.716,0.581-1.173,0.581C49.932,70.75,49.93,70.75,49.928,70.75z M44.373,60.79c0.445,0,0.881,0.198,1.172,0.562
				l4.374,5.467l4.331-5.499c0.424-0.536,1.153-0.72,1.78-0.446l6.414,2.809l1.279-6.883c0.125-0.671,0.687-1.174,1.369-1.222
				l6.985-0.493l-2.065-6.691c-0.201-0.652,0.063-1.359,0.645-1.718l5.954-3.682l-4.938-4.964c-0.481-0.484-0.575-1.233-0.228-1.82
				l3.561-6.027l-6.679-2.101c-0.651-0.205-1.082-0.824-1.048-1.506l0.353-6.992l-6.889,1.244c-0.674,0.114-1.342-0.227-1.628-0.848
				l-2.938-6.356l-5.521,4.304c-0.539,0.422-1.294,0.421-1.835,0.008l-5.555-4.262l-2.89,6.375c-0.282,0.623-0.95,0.977-1.622,0.859
				l-6.899-1.194l0.403,6.991c0.04,0.683-0.387,1.305-1.037,1.515L24.56,30.37l3.606,6.001c0.353,0.585,0.265,1.335-0.214,1.822
				l-4.902,4.999l5.983,3.639c0.584,0.354,0.854,1.059,0.657,1.713l-2.017,6.705l6.988,0.441c0.682,0.043,1.248,0.541,1.378,1.212
				l1.332,6.875l6.39-2.855C43.959,60.832,44.167,60.79,44.373,60.79z"/>
		</g>
		<g>
			<path d="M21.414,90.221c-0.186,0-0.371-0.034-0.55-0.104c-0.556-0.219-0.929-0.746-0.949-1.344l-0.568-16.369L2.977,71.835
				c-0.598-0.021-1.125-0.394-1.344-0.949c-0.219-0.556-0.088-1.188,0.335-1.61l15.557-15.557c0.586-0.586,1.535-0.586,2.121,0
				c0.586,0.586,0.586,1.535,0,2.121L6.53,68.957l14.318,0.497c0.788,0.027,1.42,0.659,1.447,1.447l0.497,14.318L35.91,72.104
				c0.586-0.586,1.535-0.586,2.121,0c0.586,0.586,0.586,1.535,0,2.121L22.475,89.781C22.188,90.068,21.805,90.221,21.414,90.221z"/>
		</g>
		<g>
			<path d="M78.586,90.221c-0.391,0-0.774-0.152-1.061-0.439L61.969,74.225c-0.586-0.586-0.586-1.535,0-2.121
				c0.586-0.586,1.535-0.586,2.121,0L77.207,85.22l0.497-14.318c0.027-0.788,0.659-1.42,1.447-1.447l14.318-0.497L80.354,55.84
				c-0.586-0.586-0.586-1.535,0-2.121c0.586-0.586,1.535-0.586,2.121,0l15.557,15.557c0.423,0.422,0.554,1.055,0.335,1.61
				c-0.219,0.556-0.746,0.929-1.344,0.949l-16.369,0.568l-0.568,16.369c-0.021,0.598-0.394,1.125-0.949,1.344
				C78.957,90.187,78.771,90.221,78.586,90.221z"/>
		</g>
	</g>
</g>
<script  type="text/javascript">
    <![CDATA[
         var c=window.location.search.split('color=')[1]; c=parseInt(c,16); if(!isNaN(c)){c=c.toString(16);var p=document.getElementsByTagName('path');for(var i=0,l=p.length;i<l;i++){var s=p[i].style;s.fill='#'+c;} var p2=document.getElementsByTagName('polygon');for(var i=0,l=p2.length;i<l;i++){var s=p2[i].style;s.fill='#'+c;} var p3=document.getElementsByTagName('circle');for(var i=0,l=p3.length;i<l;i++){var s=p3[i].style;s.fill='#'+c;} }
        ]]>
</script>
</svg>
