<svg version="1.1" xmlns="http://www.w3.org/2000/svg" xmlns:xlink="http://www.w3.org/1999/xlink" x="0px" y="0px"
	 viewBox="0 0 100 100" style="enable-background:new 0 0 100 100;" xml:space="preserve">
<g id="Vrstva_216">
	<g>
		<g>
			<g>
				<path d="M38.5,83.5c-0.288,0-0.574-0.083-0.822-0.246C37.255,82.977,37,82.505,37,82V28c0-0.597,0.354-1.138,0.902-1.375l23-10
					c0.463-0.202,0.997-0.155,1.42,0.121C62.745,17.023,63,17.495,63,18v54c0,0.597-0.355,1.138-0.902,1.375l-23,10
					C38.906,83.459,38.703,83.5,38.5,83.5z M40,28.984v50.729l20-8.696V20.288L40,28.984z"/>
			</g>
			<g>
				<path d="M84.5,83.5c-0.201,0-0.403-0.041-0.594-0.123l-23.186-10c-0.761-0.328-1.111-1.211-0.783-1.972
					c0.327-0.761,1.209-1.113,1.971-0.783L83,79.719V28.982l-21.973-9.607c-0.76-0.332-1.105-1.216-0.773-1.976
					c0.331-0.759,1.215-1.106,1.975-0.773l22.872,10C85.647,26.864,86,27.404,86,28v54c0,0.505-0.254,0.976-0.676,1.253
					C85.076,83.417,84.789,83.5,84.5,83.5z"/>
			</g>
			<g>
				<path d="M38.627,83.501c-0.198,0-0.4-0.04-0.595-0.124l-23.128-10C14.355,73.139,14,72.598,14,72V18
					c0-0.506,0.256-0.978,0.68-1.256c0.423-0.276,0.957-0.322,1.423-0.118l22.815,10c0.759,0.333,1.103,1.217,0.771,1.976
					c-0.332,0.759-1.216,1.105-1.977,0.772L17,20.296v50.719l22.224,9.609c0.76,0.329,1.11,1.212,0.781,1.972
					C39.76,83.162,39.207,83.501,38.627,83.501z"/>
			</g>
			<g>
				<path style="stroke:#000000;stroke-width:3;stroke-linecap:round;stroke-linejoin:round;stroke-miterlimit:10;" d="M38.5,61"/>
			</g>
		</g>
		<g>
			<path d="M30.161,61.876c-0.199,0-0.402-0.04-0.598-0.125l-6.324-2.75c-0.759-0.33-1.108-1.214-0.777-1.974
				c0.331-0.759,1.211-1.11,1.975-0.777L30.761,59c0.759,0.33,1.107,1.214,0.777,1.974C31.292,61.538,30.74,61.876,30.161,61.876z"
				/>
		</g>
		<g>
			<path d="M76.161,61.876c-0.199,0-0.402-0.04-0.598-0.125l-6.324-2.75c-0.759-0.33-1.107-1.214-0.777-1.974
				c0.331-0.759,1.212-1.11,1.975-0.777L76.761,59c0.759,0.33,1.107,1.214,0.777,1.974C77.292,61.538,76.74,61.876,76.161,61.876z"
				/>
		</g>
		<g>
			<path d="M46.839,61.876c-0.579,0-1.131-0.337-1.377-0.902c-0.33-0.76,0.019-1.644,0.777-1.974l6.324-2.75
				c0.763-0.332,1.645,0.018,1.975,0.777c0.33,0.76-0.019,1.644-0.777,1.974l-6.324,2.75C47.241,61.836,47.038,61.876,46.839,61.876
				z"/>
		</g>
		<g>
			<path d="M30.161,43.876c-0.199,0-0.402-0.04-0.598-0.125l-6.324-2.75c-0.759-0.33-1.108-1.214-0.777-1.974
				c0.331-0.759,1.211-1.109,1.975-0.777L30.761,41c0.759,0.33,1.107,1.214,0.777,1.974C31.292,43.538,30.74,43.876,30.161,43.876z"
				/>
		</g>
		<g>
			<path d="M76.161,43.876c-0.199,0-0.402-0.04-0.598-0.125l-6.324-2.75c-0.759-0.33-1.107-1.214-0.777-1.974
				c0.331-0.759,1.212-1.109,1.975-0.777L76.761,41c0.759,0.33,1.107,1.214,0.777,1.974C77.292,43.538,76.74,43.876,76.161,43.876z"
				/>
		</g>
		<g>
			<path d="M46.839,43.876c-0.579,0-1.131-0.337-1.377-0.902c-0.33-0.76,0.019-1.644,0.777-1.974l6.324-2.75
				c0.763-0.331,1.645,0.018,1.975,0.777c0.33,0.76-0.019,1.644-0.777,1.974l-6.324,2.75C47.241,43.836,47.038,43.876,46.839,43.876
				z"/>
		</g>
	</g>
</g>
<script  type="text/javascript">
    <![CDATA[
         var c=window.location.search.split('color=')[1]; c=parseInt(c,16); if(!isNaN(c)){c=c.toString(16);var p=document.getElementsByTagName('path');for(var i=0,l=p.length;i<l;i++){var s=p[i].style;s.fill='#'+c;} var p2=document.getElementsByTagName('polygon');for(var i=0,l=p2.length;i<l;i++){var s=p2[i].style;s.fill='#'+c;} var p3=document.getElementsByTagName('circle');for(var i=0,l=p3.length;i<l;i++){var s=p3[i].style;s.fill='#'+c;} }
        ]]>
</script>
</svg>
